<?xml version="1.0" standalone="no"?>
<!DOCTYPE svg PUBLIC "-//W3C//DTD SVG 20010904//EN"
 "http://www.w3.org/TR/2001/REC-SVG-20010904/DTD/svg10.dtd">
<svg version="1.0" xmlns="http://www.w3.org/2000/svg"
 width="600.000000pt" height="250.000000pt" viewBox="0 0 600.000000 250.000000"
 preserveAspectRatio="xMidYMid meet">

<g transform="translate(0.000000,250.000000) scale(0.100000,-0.100000)"
fill="#000000" stroke="none">
<path d="M1440 1330 l0 -270 170 0 170 0 0 30 0 30 -140 0 -140 0 0 100 0 100
130 0 130 0 0 25 0 24 -127 3 -128 3 -3 83 -3 82 136 0 135 0 0 30 0 30 -165
0 -165 0 0 -270z"/>
<path d="M2465 1458 c-11 -6 -30 -20 -42 -31 l-23 -20 0 26 c0 23 -4 27 -30
27 l-30 0 0 -275 0 -275 30 0 30 0 0 106 0 107 24 -26 c55 -59 159 -55 215 8
86 98 60 300 -46 350 -36 18 -99 19 -128 3z m114 -64 c75 -63 62 -237 -20
-280 -55 -28 -114 -3 -148 63 -17 33 -14 140 5 179 9 19 26 41 38 49 33 24 90
19 125 -11z"/>
<path d="M2934 1456 c-17 -8 -39 -24 -48 -37 l-16 -23 0 32 c0 29 -3 32 -30
32 l-30 0 0 -200 0 -200 30 0 30 0 0 135 c0 102 4 143 15 165 21 40 68 64 117
57 36 -5 38 -4 38 24 0 27 -3 29 -37 29 -21 -1 -52 -7 -69 -14z"/>
<path d="M4335 1463 c-57 -15 -92 -68 -81 -126 9 -49 41 -73 125 -95 40 -11
83 -29 94 -40 29 -29 16 -69 -28 -88 -45 -18 -78 -17 -142 5 l-53 18 0 -29 c0
-38 32 -50 130 -51 87 -1 131 17 155 63 36 70 1 137 -86 160 -98 26 -134 44
-137 70 -6 48 19 65 95 65 37 0 81 -4 96 -8 27 -7 28 -6 25 20 -2 22 -10 29
-33 34 -36 8 -132 9 -160 2z"/>
<path d="M1941 1366 l71 -95 -76 -100 c-42 -55 -76 -103 -76 -106 0 -3 15 -5
33 -5 28 1 38 9 87 76 30 42 58 78 62 80 3 2 32 -32 65 -76 52 -71 62 -79 91
-80 17 0 32 2 32 5 0 3 -31 47 -70 99 -38 51 -70 97 -70 103 0 5 25 43 56 84
81 108 81 109 41 109 -31 0 -39 -7 -83 -70 -27 -38 -51 -70 -54 -70 -3 0 -29
32 -58 70 -47 63 -56 70 -87 70 l-35 0 71 -94z"/>
<path d="M1280 775 l0 -25 1720 0 1720 0 0 25 0 25 -1720 0 -1720 0 0 -25z"/>
</g>
</svg>
